# File created by Blade
# Date/Time:  Tue Sep 30 19:36:36 2014
#---------------------------------------------------------
:version 1.10
:name HOM
:units
  mass 1.0
  length 1.000000
  angle deg
:documentation
     Acclaim Skeleton File
:root
   axis xyz
   order TX TY TZ RX RY RZ
   position 0.000000 0.000000 0.000000
   orientation 0 0 0
:bonedata
   begin
      id 1
      name Spine_dum
      direction 0.000000 1.000000 0.000000
      length 3.241213
      axis 0.0 0.0 0.0 xyz
   end
   begin
      id 2
      name LeftUpLeg_dum
      direction 1.000000 0.000000 0.000000
      length 3.434019
      axis 0.0 0.0 0.0 xyz
   end
   begin
      id 3
      name RightUpLeg_dum
      direction -1.000000 0.000000 0.000000
      length 3.434019
      axis 0.0 0.0 0.0 xyz
   end
   begin
      id 4
      name Spine
      direction 0.000000 1.000000 0.000000
      length 0.000000
      axis 0.0 0.0 0.0 xyz
      dof rx ry rz
   end
   begin
      id 5
      name Spine_dum1
      direction 0.000000 1.000000 0.000000
      length 18.382958
      axis 0.0 0.0 0.0 xyz
   end
   begin
      id 6
      name Spine_dum2
      direction 0.000000 1.000000 0.000000
      length 12.828261
      axis 0.0 0.0 0.0 xyz
   end
   begin
      id 7
      name Spine_dum3
      direction 0.000000 1.000000 0.000000
      length 12.828261
      axis 0.0 0.0 0.0 xyz
   end
   begin
      id 8
      name Head
      direction 0.000000 1.000000 0.000000
      length 4.527550
      axis 0.0 0.0 0.0 xyz
      dof rx ry rz
   end
   begin
      id 9
      name LeftShoulder
      direction 1.000000 0.000000 0.000000
      length 7.748055
      axis 0.0 0.0 -90.0 xyz
      dof rx ry rz
   end
   begin
      id 10
      name LeftArm
      direction 1.000000 0.000000 0.000000
      length 10.635614
      axis 0.0 0.0 -90.0 xyz
      dof rx ry rz
   end
   begin
      id 11
      name LeftForeArm
      direction 1.000000 0.000000 0.000000
      length 8.346755
      axis 0.0 0.0 -90.0 xyz
      dof ry rz rx
   end
   begin
      id 12
      name LeftHand
      direction 0.000000 0.000000 0.000000
      length 0.000000
      axis 0.0 0.0 -90.0 xyz
      dof rx ry rz
   end
   begin
      id 13
      name LeftHand_dum1
      direction 0.000000 0.000000 0.000000
      length 0.000000
      axis 0.0 0.0 -90.0 xyz
   end
   begin
      id 14
      name LeftHand_dum2
      direction 1.000000 0.000000 0.000000
      length 3.937000
      axis 0.0 0.0 -90.0 xyz
   end
   begin
      id 15
      name LeftHandThumb1
      direction 0.000000 0.000000 1.000000
      length 3.937000
      axis 0.0 0.0 -90.0 xyz
      dof rx rz ry
   end
   begin
      id 16
      name RightShoulder
      direction -1.000000 0.000000 0.000000
      length 7.748055
      axis 0.0 0.0 90.0 xyz
      dof rx ry rz
   end
   begin
      id 17
      name RightArm
      direction -1.000000 0.000000 0.000000
      length 10.635614
      axis 0.0 0.0 90.0 xyz
      dof rx ry rz
   end
   begin
      id 18
      name RightForeArm
      direction -1.000000 0.000000 0.000000
      length 8.346755
      axis 0.0 0.0 90.0 xyz
      dof ry rz rx
   end
   begin
      id 19
      name RightHand
      direction 0.000000 0.000000 0.000000
      length 0.000000
      axis 0.0 0.0 90.0 xyz
      dof rx ry rz
   end
   begin
      id 20
      name RightHand_dum1
      direction 0.000000 0.000000 0.000000
      length 0.000000
      axis 0.0 0.0 90.0 xyz
   end
   begin
      id 21
      name RightHand_dum2
      direction -1.000000 0.000000 0.000000
      length 3.937000
      axis 0.0 0.0 90.0 xyz
   end
   begin
      id 22
      name RightHandThumb1
      direction 0.000000 0.000000 1.000000
      length 3.937000
      axis 0.0 0.0 90.0 xyz
      dof rx rz ry
   end
   begin
      id 23
      name LeftUpLeg
      direction 0.000000 -1.000000 0.000000
      length 15.713025
      axis 0.0 0.0 0.0 xyz
      dof rx ry rz
   end
   begin
      id 24
      name LeftLeg
      direction 0.000000 -1.000000 0.000000
      length 14.435119
      axis 0.0 0.0 0.0 xyz
      dof rx ry rz
   end
   begin
      id 25
      name LeftFoot
      direction 0.000000 -0.258819 0.965926
      length 4.938895
      axis 15.0 0.0 0.0 xyz
      dof rx ry rz
   end
   begin
      id 26
      name LeftToeBase
      direction 0.000000 0.000000 1.000000
      length 2.952750
      axis 0.0 0.0 0.0 xyz
      dof rx ry rz
   end
   begin
      id 27
      name RightUpLeg
      direction 0.000000 -1.000000 0.000000
      length 15.713025
      axis 0.0 0.0 0.0 xyz
      dof rx ry rz
   end
   begin
      id 28
      name RightLeg
      direction 0.000000 -1.000000 0.000000
      length 14.435119
      axis 0.0 0.0 0.0 xyz
      dof rx ry rz
   end
   begin
      id 29
      name RightFoot
      direction 0.000000 -0.258819 0.965926
      length 4.938895
      axis 15.0 0.0 0.0 xyz
      dof rx ry rz
   end
   begin
      id 30
      name RightToeBase
      direction 0.000000 0.000000 1.000000
      length 2.952750
      axis 0.0 0.0 0.0 xyz
      dof rx ry rz
   end
:hierarchy
   begin
      root Spine_dum LeftUpLeg_dum RightUpLeg_dum
      Spine_dum Spine
      LeftUpLeg_dum LeftUpLeg
      RightUpLeg_dum RightUpLeg
      Spine Spine_dum1 Spine_dum2 Spine_dum3
      Spine_dum1 Head
      Spine_dum2 LeftShoulder
      Spine_dum3 RightShoulder
      LeftShoulder LeftArm
      LeftArm LeftForeArm
      LeftForeArm LeftHand
      LeftHand LeftHand_dum1 LeftHand_dum2
      LeftHand_dum1 LeftHandThumb1
      RightShoulder RightArm
      RightArm RightForeArm
      RightForeArm RightHand
      RightHand RightHand_dum1 RightHand_dum2
      RightHand_dum1 RightHandThumb1
      LeftUpLeg LeftLeg
      LeftLeg LeftFoot
      LeftFoot LeftToeBase
      RightUpLeg RightLeg
      RightLeg RightFoot
      RightFoot RightToeBase
   end

# File created by Blade
# Date/Time:  Tue Sep 23 19:22:32 2014
# Frame Rate: 120.000 fps
#------------------------------------------------------
:FULLY-SPECIFIED
:DEGREES
80
root -0.312559 32.566530 1.654796 36.353950 6.610050 -1.806110
Spine -34.273331 -8.179144 2.814877
Head -0.963361 -6.937180 0.289037
LeftShoulder -12.175058 42.642714 18.585267
LeftArm 48.325605 -30.778270 -77.505412
LeftForeArm 17.802092 -0.000000 73.475913
LeftHand 37.887681 -0.000000 15.350177
LeftHandThumb1 -26.253704 0.000000 33.147579
RightShoulder -16.340799 -44.650071 -17.005892
RightArm 52.753701 12.645089 69.589662
RightForeArm 26.854322 -0.000000 -6.231559
RightHand 13.578086 0.000000 9.684887
RightHandThumb1 -24.326973 -0.000000 -32.862282
LeftUpLeg -35.979055 -0.189087 2.526714
LeftLeg 5.566981 -0.000000 -0.000000
LeftFoot -7.229181 -3.751710 -1.197629
LeftToeBase 4.585526 -0.000000 -0.000000
RightUpLeg -32.127035 -12.849641 1.062523
RightLeg -0.394881 -0.000000 0.000000
RightFoot -0.220629 -2.226421 14.404991
RightToeBase 7.191020 -0.000000 -0.000000
81
root -0.242181 32.573516 1.662306 36.335235 6.718441 -1.907375
Spine -34.270482 -8.296875 2.971700
Head -0.834659 -6.864899 0.270822
LeftShoulder -12.322305 42.686930 18.372881
LeftArm 48.961530 -30.148393 -77.776658
LeftForeArm 19.029492 -0.000000 73.697433
LeftHand 37.426353 -0.000000 15.805642
LeftHandThumb1 -26.253704 0.000000 33.147579
RightShoulder -16.279309 -44.739527 -16.844365
RightArm 52.926581 12.162599 69.986308
RightForeArm 26.989104 -0.000000 -6.160685
RightHand 13.456777 -0.000000 9.749566
RightHandThumb1 -24.326973 -0.000000 -32.862282
LeftUpLeg -35.903420 -0.191206 2.508982
LeftLeg 5.443727 -0.000000 -0.000000
LeftFoot -7.161008 -3.872641 -1.110499
LeftToeBase 4.586216 -0.000000 -0.000000
RightUpLeg -32.050241 -12.863902 1.055728
RightLeg -0.494304 -0.000000 0.000000
RightFoot 0.109610 -2.425670 14.585852
RightToeBase 6.883959 -0.000000 -0.000000
82
root -0.171946 32.577941 1.674784 36.326980 6.748164 -1.992110
Spine -34.280209 -8.353040 3.087353
Head -0.727460 -6.758714 0.228045
LeftShoulder -12.260335 42.610807 18.317310
LeftArm 49.272539 -29.595476 -78.054491
LeftForeArm 20.032950 0.000000 74.001358
LeftHand 37.005160 -0.000000 16.458826
LeftHandThumb1 -26.253704 0.000000 33.147579
RightShoulder -16.303852 -44.813599 -16.655240
RightArm 53.167937 11.742299 70.478160
RightForeArm 26.963913 -0.000000 -6.127218
RightHand 13.333476 -0.000000 9.860925
RightHandThumb1 -24.326973 -0.000000 -32.862282
LeftUpLeg -35.812743 -0.169968 2.446414
LeftLeg 5.325670 -0.000000 -0.000000
LeftFoot -7.188983 -3.893663 -0.881414
LeftToeBase 4.755601 -0.000000 -0.000000
RightUpLeg -32.036898 -12.883116 1.023384
RightLeg -0.480628 -0.000000 0.000000
RightFoot 0.257012 -2.466110 14.867734
RightToeBase 6.959637 -0.000000 -0.000000
83
root -0.101232 32.582932 1.684228 36.351180 7.006359 -2.081538
Spine -34.336837 -8.536253 3.344794
Head -0.616515 -6.759571 0.142452
LeftShoulder -12.116939 42.447560 18.325846
LeftArm 49.504411 -29.005243 -78.334250
LeftForeArm 20.901099 -0.000000 74.282755
LeftHand 36.613131 -0.000000 16.806046
LeftHandThumb1 -26.253704 0.000000 33.147579
RightShoulder -16.312583 -44.876992 -16.507197
RightArm 53.285583 11.240231 70.863526
RightForeArm 27.118736 -0.000000 -6.008049
RightHand 13.222790 -0.000000 9.899713
RightHandThumb1 -24.326973 -0.000000 -32.862282
LeftUpLeg -35.824592 -0.398437 2.566334
LeftLeg 5.263293 -0.000000 -0.000000
LeftFoot -7.168118 -3.877750 -0.733609
LeftToeBase 4.778202 -0.000000 -0.000000
RightUpLeg -32.000903 -13.110539 1.172405
RightLeg -0.582678 -0.000000 0.000000
RightFoot 0.610899 -2.656663 14.891374
RightToeBase 6.517013 -0.000000 -0.000000
84
root -0.035234 32.587033 1.693209 36.336244 7.121988 -2.161330
Spine -34.336175 -8.618836 3.448200
Head -0.535311 -6.748524 0.155839
LeftShoulder -11.951305 42.320385 18.410742
LeftArm 49.768853 -28.377341 -78.610332
LeftForeArm 21.765596 -0.000000 74.511621
LeftHand 36.165779 -0.000000 17.488192
LeftHandThumb1 -26.253704 0.000000 33.147579
RightShoulder -16.335386 -44.964007 -16.289196
RightArm 53.356949 10.705164 71.191552
RightForeArm 27.319981 -0.000000 -5.833551
RightHand 13.329789 -0.000000 9.770755
RightHandThumb1 -24.326973 -0.000000 -32.862282
LeftUpLeg -35.781451 -0.486987 2.584043
LeftLeg 5.208358 -0.000000 -0.000000
LeftFoot -7.153946 -3.898015 -0.613580
LeftToeBase 4.820223 -0.000000 -0.000000
RightUpLeg -31.868492 -13.089665 1.129421
RightLeg -0.767317 -0.000000 0.000000
RightFoot 0.899061 -2.949009 15.065596
RightToeBase 6.279675 -0.000000 -0.000000
85
root 0.029069 32.590487 1.708233 36.302745 7.264694 -2.255297
Spine -34.334053 -8.751658 3.612331
Head -0.435754 -6.707793 0.177418
LeftShoulder -11.961998 42.342696 18.341302
LeftArm 50.265042 -27.774552 -79.023043
LeftForeArm 22.492095 -0.000000 74.678534
LeftHand 36.098839 0.000000 17.457355
LeftHandThumb1 -26.253704 0.000000 33.147579
RightShoulder -16.292663 -44.980437 -16.130881
RightArm 53.408831 10.296008 71.657875
RightForeArm 27.365798 0.000000 -5.709501
RightHand 13.448690 -0.000000 9.701231
RightHandThumb1 -24.326973 -0.000000 -32.862282
LeftUpLeg -35.719686 -0.568476 2.618375
LeftLeg 5.166179 -0.000000 -0.000000
LeftFoot -7.097943 -3.878417 -0.373181
LeftToeBase 4.534858 -0.000000 -0.000000
RightUpLeg -31.715474 -13.157712 1.154439
RightLeg -0.957425 -0.000000 0.000000
RightFoot 1.129507 -3.084032 15.456719
RightToeBase 6.305355 -0.000000 -0.000000
86
root 0.095581 32.595790 1.714738 36.394978 7.422690 -2.345039
Spine -34.440882 -8.839115 3.793156
Head -0.387807 -6.714208 0.165031
LeftShoulder -11.772166 42.204239 18.434485
LeftArm 50.420818 -27.143125 -79.225515
LeftForeArm 23.588359 -0.000000 74.906315
LeftHand 35.398247 -0.000000 18.631529
LeftHandThumb1 -26.253704 0.000000 33.147579
RightShoulder -16.359271 -45.050385 -15.919303
RightArm 53.477040 9.807521 72.026016
RightForeArm 27.627775 -0.000000 -5.534163
RightHand 13.567068 -0.000000 9.502639
RightHandThumb1 -24.326973 -0.000000 -32.862282
LeftUpLeg -35.830652 -0.669104 2.660483
LeftLeg 5.181555 -0.000000 -0.000000
LeftFoot -7.098667 -3.937800 -0.197953
LeftToeBase 4.452409 -0.000000 -0.000000
RightUpLeg -31.746360 -13.331479 1.271611
RightLeg -1.090122 -0.000000 0.000000
RightFoot 1.461236 -3.151350 15.702186
RightToeBase 6.064312 -0.000000 -0.000000
87
root 0.155259 32.600700 1.731087 36.424398 7.390923 -2.467226
Spine -34.494193 -8.783212 3.827263
Head -0.331323 -6.730555 0.266521
LeftShoulder -11.611137 42.107730 18.541272
LeftArm 50.600096 -26.528049 -79.406764
LeftForeArm 24.500120 0.000000 75.129915
LeftHand 35.250844 -0.000000 18.865186
LeftHandThumb1 -26.253704 0.000000 33.147579
RightShoulder -16.417380 -45.139384 -15.662904
RightArm 53.496294 9.286202 72.359697
RightForeArm 27.910715 -0.000000 -5.363460
RightHand 13.881857 -0.000000 9.260965
RightHandThumb1 -24.326973 -0.000000 -32.862282
LeftUpLeg -35.808534 -0.565912 2.617549
LeftLeg 5.145288 -0.000000 -0.000000
LeftFoot -7.112082 -4.007672 -0.136947
LeftToeBase 4.530223 -0.000000 -0.000000
RightUpLeg -31.729146 -13.324289 1.284844
RightLeg -1.189411 -0.000000 0.000000
RightFoot 1.774282 -3.192616 15.934933
RightToeBase 5.860935 -0.000000 -0.000000
88
root 0.218257 32.605298 1.741859 36.437800 7.422156 -2.566867
Spine -34.502912 -8.751228 3.881823
Head -0.343583 -6.811576 0.309575
LeftShoulder -11.433980 42.022157 18.642465
LeftArm 50.801875 -25.868922 -79.554590
LeftForeArm 25.738266 -0.000000 75.325342
LeftHand 34.227711 -0.000000 20.036820
LeftHandThumb1 -26.253704 0.000000 33.147579
RightShoulder -16.531574 -45.219052 -15.396712
RightArm 53.503374 8.882702 72.842764
RightForeArm 28.105175 -0.000000 -5.099374
RightHand 14.110157 -0.000000 8.903308
RightHandThumb1 -24.326973 -0.000000 -32.862282
LeftUpLeg -35.815506 -0.564968 2.607293
LeftLeg 5.168533 -0.000000 -0.000000
LeftFoot -7.143071 -4.051695 -0.080274
LeftToeBase 4.623042 -0.000000 -0.000000
RightUpLeg -31.593376 -13.193063 1.195654
RightLeg -1.439412 -0.000000 0.000000
RightFoot 2.074229 -3.487343 16.118167
RightToeBase 5.689163 -0.000000 -0.000000
89
root 0.284880 32.608395 1.754679 36.434026 7.443542 -2.638033
Spine -34.494388 -8.760756 3.936241
Head -0.371664 -6.825725 0.374261
LeftShoulder -11.307784 41.887981 18.708360
LeftArm 50.914929 -25.216877 -79.639821
LeftForeArm 27.093552 -0.000000 75.526379
LeftHand 33.493672 -0.000000 21.017666
LeftHandThumb1 -26.253704 0.000000 33.147579
RightShoulder -16.607273 -45.342902 -15.170425
RightArm 53.531361 8.470738 73.304629
RightForeArm 28.329698 0.000000 -4.800321
RightHand 14.331295 0.000000 8.502776
RightHandThumb1 -24.326973 -0.000000 -32.862282
LeftUpLeg -35.793211 -0.650643 2.603255
LeftLeg 5.190966 -0.000000 -0.000000
LeftFoot -7.231129 -4.012561 -0.090733
LeftToeBase 4.860214 -0.000000 -0.000000
RightUpLeg -31.720687 -13.600665 1.409931
RightLeg -1.271548 -0.000000 0.000000
RightFoot 2.318359 -3.161072 16.112960
RightToeBase 5.526532 -0.000000 -0.000000
